<?xml version="1.0" standalone="no"?><!DOCTYPE svg PUBLIC "-//W3C//DTD SVG 1.1//EN" "http://www.w3.org/Graphics/SVG/1.1/DTD/svg11.dtd"><svg t="1745053683024" class="icon" viewBox="0 0 1052 1024" version="1.1" xmlns="http://www.w3.org/2000/svg" p-id="4461" xmlns:xlink="http://www.w3.org/1999/xlink" width="205.46875" height="200"><path d="M920.547945 115.726027h-22.356164V65.753425a65.753425 65.753425 0 0 0-131.506849 0V115.726027h-482.191781V65.753425a65.753425 65.753425 0 0 0-131.50685 0V115.726027H131.506849a131.506849 131.506849 0 0 0-131.506849 131.50685v645.260274a131.506849 131.506849 0 0 0 131.506849 131.506849h789.041096a131.506849 131.506849 0 0 0 131.50685-131.506849V247.232877a131.506849 131.506849 0 0 0-131.50685-131.50685zM263.013699 810.958904a43.835616 43.835616 0 1 1 43.835616-43.835616 43.835616 43.835616 0 0 1-43.835616 43.835616z m0-175.342466a43.835616 43.835616 0 1 1 43.835616-43.835616 43.835616 43.835616 0 0 1-43.835616 43.835616z m0-175.342465a43.835616 43.835616 0 1 1 43.835616-43.835617 43.835616 43.835616 0 0 1-43.835616 43.835617z m175.342465 350.684931a43.835616 43.835616 0 1 1 43.835617-43.835616 43.835616 43.835616 0 0 1-43.835617 43.835616z m0-175.342466a43.835616 43.835616 0 1 1 43.835617-43.835616 43.835616 43.835616 0 0 1-43.835617 43.835616z m0-175.342465a43.835616 43.835616 0 1 1 43.835617-43.835617 43.835616 43.835616 0 0 1-43.835617 43.835617z m175.342466 350.684931a43.835616 43.835616 0 1 1 43.835617-43.835616 43.835616 43.835616 0 0 1-43.835617 43.835616z m0-175.342466a43.835616 43.835616 0 1 1 43.835617-43.835616 43.835616 43.835616 0 0 1-43.835617 43.835616z m0-175.342465a43.835616 43.835616 0 1 1 43.835617-43.835617 43.835616 43.835616 0 0 1-43.835617 43.835617z m175.342466 175.342465a43.835616 43.835616 0 1 1 43.835616-43.835616 43.835616 43.835616 0 0 1-43.835616 43.835616z m0-175.342465a43.835616 43.835616 0 1 1 43.835616-43.835617 43.835616 43.835616 0 0 1-43.835616 43.835617z" fill="#3E2AD1" p-id="4462"></path></svg>