<?xml version="1.0" standalone="no"?><!DOCTYPE svg PUBLIC "-//W3C//DTD SVG 1.1//EN" "http://www.w3.org/Graphics/SVG/1.1/DTD/svg11.dtd"><svg t="1745226688922" class="icon" viewBox="0 0 1024 1024" version="1.1" xmlns="http://www.w3.org/2000/svg" p-id="20340" xmlns:xlink="http://www.w3.org/1999/xlink" width="200" height="200"><path d="M320.990502 615.629461c0 34.542621 28.593614 62.560524 63.967816 62.560525 35.310235 0 63.967816-28.017903 63.967816-62.560525s-28.657582-62.560524-63.967816-62.560524a63.328138 63.328138 0 0 0-63.967816 62.560524z m0 0M577.373509 615.629461c0 22.324768 12.153885 42.922405 31.91994 54.180741 19.830023 11.1304 44.201761 11.1304 63.967816 0 19.766055-11.258336 31.983908-31.855972 31.983909-54.180741s-12.217853-42.986372-31.983909-54.18074a65.439076 65.439076 0 0 0-63.967816 0 62.560524 62.560524 0 0 0-31.91994 54.18074z m0 0" p-id="20341" fill="#67b42e"></path><path d="M895.549427 445.858877c-2.238874 0-4.477747 0.063968-6.652653 0.191904-22.324768-103.435959-99.789793-187.041895-200.858943-219.98532a174.184363 174.184363 0 0 0-28.337743-26.994419L742.026668 118.59953c8.827559 4.413779 18.74257 6.908524 29.233292 6.908524 35.374202 0 63.967816-27.953936 63.967816-62.560524 0-34.542621-28.593614-62.496556-63.967816-62.496557s-63.967816 27.953936-63.967816 62.496557c0 12.857531 4.029972 24.88348 10.810561 34.734524L632.321863 181.543861a256.638879 256.638879 0 0 0-120.643301-29.041389c-44.393664 0-85.652906 10.426754-119.363945 28.337743L305.702194 96.274762a60.833393 60.833393 0 0 0 9.851043-33.327232 63.26417 63.26417 0 0 0-63.967816-62.496557c-35.374202 0-63.967816 27.953936-63.967816 62.496557s28.593614 62.496556 63.967816 62.496556c11.194368 0 21.749058-2.814584 30.832487-7.740106L364.872424 198.175493a177.766561 177.766561 0 0 0-29.553132 27.826c-101.06915 33.007393-178.406239 116.549361-200.794975 219.921352L127.935632 445.794909c-70.620469 0-127.935632 55.971839-127.935632 124.929145 0 69.085241 57.315163 124.993113 127.935632 124.993113v265.722309c0 34.606589 28.593614 62.560524 63.967817 62.560524h639.550226a63.328138 63.328138 0 0 0 63.967816-62.496556v-265.722309H895.549427c70.684437 0 127.935632-55.971839 127.935632-124.993113s-57.251195-124.929145-127.935632-124.929145z m-287.151527 481.357817H415.023191v-62.304653H608.333932v62.304653z m179.045917-221.712451a129.598796 129.598796 0 0 1-84.821324 31.34423H320.926534a129.534828 129.534828 0 0 1-84.757357-31.34423 123.138046 123.138046 0 0 1-23.41222-160.239379 128.447375 128.447375 0 0 1 108.169577-58.338649h381.695959c45.545085 0 85.588938 23.220317 108.233545 58.338649 12.473724 19.254313 19.702087 42.090823 19.702087 66.590496a124.161531 124.161531 0 0 1-43.114308 93.648883z m0 0" p-id="20342" fill="#67b42e"></path></svg>