<?xml version="1.0" standalone="no"?><!DOCTYPE svg PUBLIC "-//W3C//DTD SVG 1.1//EN" "http://www.w3.org/Graphics/SVG/1.1/DTD/svg11.dtd"><svg t="1745053661510" class="icon" viewBox="0 0 1169 1024" version="1.1" xmlns="http://www.w3.org/2000/svg" p-id="4141" xmlns:xlink="http://www.w3.org/1999/xlink" width="228.3203125" height="200"><path d="M1021.252345 0H145.893192a145.893192 145.893192 0 0 0-145.893192 145.893192v534.941705a145.893192 145.893192 0 0 0 145.893192 145.893192h12.644077a24.315532 24.315532 0 0 1 24.315532 24.315532v136.65329A34.041745 34.041745 0 0 0 243.15532 1011.526132l156.592026-156.592026A97.262128 97.262128 0 0 1 466.371904 826.728089H1021.252345a145.893192 145.893192 0 0 0 145.893192-145.893192V145.893192a145.893192 145.893192 0 0 0-145.893192-145.893192z m-389.048512 530.078598H291.786384a48.631064 48.631064 0 0 1 0-97.262128h340.417449a48.631064 48.631064 0 0 1 0 97.262128z m194.524256-194.524256H291.786384a48.631064 48.631064 0 0 1 0-97.262128h534.941705a48.631064 48.631064 0 0 1 0 97.262128z" fill="#3E2AD1" p-id="4142"></path></svg>