<?xml version="1.0" standalone="no"?><!DOCTYPE svg PUBLIC "-//W3C//DTD SVG 1.1//EN" "http://www.w3.org/Graphics/SVG/1.1/DTD/svg11.dtd"><svg t="1745303567848" class="icon" viewBox="0 0 1024 1024" version="1.1" xmlns="http://www.w3.org/2000/svg" p-id="27488" xmlns:xlink="http://www.w3.org/1999/xlink" width="200" height="200"><path d="M433.109333 674.901333a14.208 14.208 0 0 0-14.208 14.208c0 43.562667 35.328 78.890667 78.933334 78.890667h28.373333a78.890667 78.890667 0 0 0 78.890667-78.890667 14.208 14.208 0 0 0-14.208-14.208h-157.781334zM372.352 437.461333a46.933333 46.933333 0 0 1 46.933333 46.933334v93.098666a46.933333 46.933333 0 0 1-93.866666 0v-93.098666a46.933333 46.933333 0 0 1 46.933333-46.933334zM698.581333 484.394667a46.933333 46.933333 0 0 0-93.866666 0v93.098666a46.933333 46.933333 0 0 0 93.866666 0v-93.098666z" fill="#67b42e" p-id="27489"></path><path d="M686.933333 162.901333a46.933333 46.933333 0 0 1-46.933333 46.933334h-81.066667V256c0 2.56-0.213333 4.992-0.597333 7.424h92.16a217.6 217.6 0 0 1 217.6 217.6V682.666667a217.6 217.6 0 0 1-217.6 217.6H373.504a217.6 217.6 0 0 1-217.6-217.6v-201.6a217.6 217.6 0 0 1 217.6-217.6h92.117333A47.36 47.36 0 0 1 465.066667 256V209.834667H384a46.933333 46.933333 0 0 1 0-93.866667h256a46.933333 46.933333 0 0 1 46.933333 46.933333zM249.856 481.024V682.666667a123.733333 123.733333 0 0 0 123.733333 123.733333h276.906667a123.733333 123.733333 0 0 0 123.733333-123.733333v-201.6a123.733333 123.733333 0 0 0-123.733333-123.733334h-276.906667a123.733333 123.733333 0 0 0-123.733333 123.733334zM42.666667 512.682667c0-34.645333 28.074667-62.72 62.72-62.72a22.613333 22.613333 0 0 1 22.613333 22.570666v210.816a22.613333 22.613333 0 0 1-22.613333 22.613334A62.72 62.72 0 0 1 42.666667 643.157333v-130.517333zM918.613333 449.92c34.645333 0 62.72 28.117333 62.72 62.762667v130.517333a62.72 62.72 0 0 1-62.72 62.72 22.613333 22.613333 0 0 1-22.613333-22.570667v-210.816a22.613333 22.613333 0 0 1 22.613333-22.613333z" fill="#67b42e" p-id="27490"></path></svg>