<?xml version="1.0" standalone="no"?><!DOCTYPE svg PUBLIC "-//W3C//DTD SVG 1.1//EN" "http://www.w3.org/Graphics/SVG/1.1/DTD/svg11.dtd"><svg t="1745225817304" class="icon" viewBox="0 0 1024 1024" version="1.1" xmlns="http://www.w3.org/2000/svg" p-id="6253" xmlns:xlink="http://www.w3.org/1999/xlink" width="200" height="200"><path d="M210.304 813.696a424.661333 424.661333 0 0 0 285.525333 123.989333c-19.754667-118.314667 15.573333-244.096 106.666667-335.189333 91.136-91.093333 216.874667-126.421333 335.189333-106.666667-3.925333-103.808-44.928-206.464-123.989333-285.525333s-181.76-120.064-285.525333-123.989333c19.754667 118.314667-15.573333 244.096-106.666667 335.189333-91.136 91.093333-216.874667 126.421333-335.189333 106.666667a424.277333 424.277333 0 0 0 123.989333 285.525333z" p-id="6254" fill="#67b42e"></path><path d="M662.826667 662.826667a298.496 298.496 0 0 0-81.536 269.568 423.637333 423.637333 0 0 0 351.104-351.104 298.624 298.624 0 0 0-269.568 81.536z m-301.653334-301.653334a298.496 298.496 0 0 0 81.536-269.568 423.637333 423.637333 0 0 0-351.146666 351.104 298.666667 298.666667 0 0 0 269.610666-81.536z" p-id="6255" fill="#67b42e"></path></svg>